<svg width="44" height="25" viewBox="0 0 44 25" fill="none" xmlns="http://www.w3.org/2000/svg">
<path d="M43.3237 11.9013L33.5032 1.04396C33.1504 0.58854 32.5305 0.535449 32.1185 0.925558C31.7066 1.31557 31.6586 2.00099 32.0114 2.45641C32.0444 2.49887 32.0801 2.53852 32.1185 2.57482L40.2597 11.5864L1.38031 11.5864C0.837984 11.5864 0.398286 12.0725 0.398286 12.6722C0.398286 13.2719 0.837984 13.7579 1.38031 13.7579L40.2597 13.7579L32.1185 22.7586C31.7066 23.1486 31.6586 23.834 32.0114 24.2894C32.3643 24.7448 32.9842 24.7979 33.3961 24.4078C33.4345 24.3714 33.4704 24.3319 33.5032 24.2894L43.3237 13.4321C43.7044 13.0087 43.7044 12.3248 43.3237 11.9013Z" fill="white"/>
</svg>
