<svg width="44" height="25" viewBox="0 0 44 25" fill="none" xmlns="http://www.w3.org/2000/svg">
<path d="M0.67633 13.0988L10.4968 23.9562C10.8496 24.4116 11.4695 24.4647 11.8815 24.0746C12.2934 23.6846 12.3414 22.9991 11.9886 22.5437C11.9556 22.5013 11.9199 22.4616 11.8815 22.4253L3.74029 13.4137L42.6197 13.4137C43.162 13.4137 43.6017 12.9276 43.6017 12.3279C43.6017 11.7283 43.162 11.2422 42.6197 11.2422L3.74029 11.2422L11.8815 2.24156C12.2934 1.85155 12.3414 1.16613 11.9886 0.710705C11.6357 0.255284 11.0158 0.202195 10.6039 0.592303C10.5655 0.628693 10.5296 0.668252 10.4968 0.710705L0.676246 11.5681C0.295539 11.9914 0.295539 12.6753 0.67633 13.0988Z" fill="white"/>
</svg>
