<svg width="100" height="100" viewBox="0 0 100 100" fill="none" xmlns="http://www.w3.org/2000/svg">
<path d="M41.2102 30.2726C18.5944 30.2726 0.000205685 45.8251 0.000205685 64.9425C0.000205685 72.5842 2.96427 80.3506 8.40003 86.37L0.724035 95.1419C-0.0312397 96.006 -0.214443 97.2333 0.263487 98.2804C0.738488 99.3275 1.7799 100 2.9299 100H44.1399C60.8382 100 82.4203 85.6208 82.4203 64.9425C82.4203 45.8251 63.8261 30.2726 41.2102 30.2726ZM23.4372 70.3125C20.2071 70.3125 17.578 67.6831 17.578 64.4532C17.578 61.2231 20.2073 58.5939 23.4372 58.5939C26.6671 58.5939 29.2964 61.2232 29.2964 64.4532C29.2965 67.6831 26.6672 70.3125 23.4372 70.3125ZM41.2102 70.3125C37.9802 70.3125 35.3511 67.6831 35.3511 64.4532C35.3511 61.2231 37.9804 58.5939 41.2102 58.5939C44.4401 58.5939 47.0694 61.2232 47.0694 64.4532C47.0694 67.6831 44.4403 70.3125 41.2102 70.3125ZM58.9833 70.3125C55.7532 70.3125 53.1241 67.6831 53.1241 64.4532C53.1241 61.2231 55.7534 58.5939 58.9833 58.5939C62.2132 58.5939 64.8425 61.2232 64.8425 64.4532C64.8425 67.6831 62.2134 70.3125 58.9833 70.3125Z" fill="url(#paint0_linear_207_1307)"/>
<path d="M41.2102 30.2726C18.5944 30.2726 0.000205685 45.8251 0.000205685 64.9425C0.000205685 72.5842 2.96427 80.3506 8.40003 86.37L0.724035 95.1419C-0.0312397 96.006 -0.214443 97.2333 0.263487 98.2804C0.738488 99.3275 1.7799 100 2.9299 100H44.1399C60.8382 100 82.4203 85.6208 82.4203 64.9425C82.4203 45.8251 63.8261 30.2726 41.2102 30.2726ZM23.4372 70.3125C20.2071 70.3125 17.578 67.6831 17.578 64.4532C17.578 61.2231 20.2073 58.5939 23.4372 58.5939C26.6671 58.5939 29.2964 61.2232 29.2964 64.4532C29.2965 67.6831 26.6672 70.3125 23.4372 70.3125ZM41.2102 70.3125C37.9802 70.3125 35.3511 67.6831 35.3511 64.4532C35.3511 61.2231 37.9804 58.5939 41.2102 58.5939C44.4401 58.5939 47.0694 61.2232 47.0694 64.4532C47.0694 67.6831 44.4403 70.3125 41.2102 70.3125ZM58.9833 70.3125C55.7532 70.3125 53.1241 67.6831 53.1241 64.4532C53.1241 61.2231 55.7534 58.5939 58.9833 58.5939C62.2132 58.5939 64.8425 61.2232 64.8425 64.4532C64.8425 67.6831 62.2134 70.3125 58.9833 70.3125Z" fill="url(#paint1_linear_207_1307)" fill-opacity="0.85"/>
<path d="M99.2911 59.6148L92.3935 51.5668C97.3171 46.0109 99.998 39.2357 99.998 32.2264C99.9978 14.4567 82.9122 0 61.9127 0C42.9234 0 26.7904 11.834 23.9418 27.2369C29.2402 25.4364 35.1822 24.413 41.2102 24.413C66.8651 24.413 87.9429 42.3323 88.2509 64.4528H97.0683C99.5708 64.453 100.915 61.5061 99.2911 59.6148Z" fill="url(#paint2_linear_207_1307)"/>
<path d="M99.2911 59.6148L92.3935 51.5668C97.3171 46.0109 99.998 39.2357 99.998 32.2264C99.9978 14.4567 82.9122 0 61.9127 0C42.9234 0 26.7904 11.834 23.9418 27.2369C29.2402 25.4364 35.1822 24.413 41.2102 24.413C66.8651 24.413 87.9429 42.3323 88.2509 64.4528H97.0683C99.5708 64.453 100.915 61.5061 99.2911 59.6148Z" fill="url(#paint3_linear_207_1307)" fill-opacity="0.85"/>
<defs>
<linearGradient id="paint0_linear_207_1307" x1="82.6195" y1="-33.737" x2="26.3388" y2="-11.6689" gradientUnits="userSpaceOnUse">
<stop stop-color="#602DF5"/>
<stop offset="1" stop-color="#1F64A5"/>
</linearGradient>
<linearGradient id="paint1_linear_207_1307" x1="44.8097" y1="9.54075e-06" x2="115.227" y2="56.1874" gradientUnits="userSpaceOnUse">
<stop stop-color="#31DFEA"/>
<stop offset="0.51116" stop-color="#49FCDC"/>
<stop offset="1" stop-color="#5BE8D7"/>
</linearGradient>
<linearGradient id="paint2_linear_207_1307" x1="82.6195" y1="-33.737" x2="26.3388" y2="-11.6689" gradientUnits="userSpaceOnUse">
<stop stop-color="#602DF5"/>
<stop offset="1" stop-color="#1F64A5"/>
</linearGradient>
<linearGradient id="paint3_linear_207_1307" x1="44.8097" y1="9.54075e-06" x2="115.227" y2="56.1874" gradientUnits="userSpaceOnUse">
<stop stop-color="#31DFEA"/>
<stop offset="0.51116" stop-color="#49FCDC"/>
<stop offset="1" stop-color="#5BE8D7"/>
</linearGradient>
</defs>
</svg>
