<svg width="38" height="39" viewBox="0 0 38 39" fill="none" xmlns="http://www.w3.org/2000/svg">
<mask id="mask0_61_2539" style="mask-type:luminance" maskUnits="userSpaceOnUse" x="0" y="0" width="38" height="39">
<path d="M37.7117 0H0V39.0001H37.7117V0Z" fill="white"/>
</mask>
<g mask="url(#mask0_61_2539)">
<path d="M18.3061 0H19.4294C19.4723 0.00793118 19.5156 0.0133578 19.5591 0.016254C20.1842 0.0304895 20.8079 0.0839698 21.4268 0.1764C23.778 0.505956 26.0473 1.29432 28.114 2.49958C29.5311 3.32665 30.8397 4.33833 32.0077 5.50984C33.9008 7.41551 35.3891 9.70815 36.3779 12.2416C36.8713 13.5072 37.2318 14.824 37.4531 16.1693C37.5936 16.9596 37.6746 17.76 37.6952 18.5633C37.6982 18.6124 37.7038 18.6613 37.7119 18.7098V20.291C37.7037 20.3353 37.6984 20.3801 37.6959 20.4252C37.6909 20.8039 37.6669 21.1821 37.6241 21.5583C37.5349 22.4722 37.3804 23.378 37.162 24.2683C36.762 25.9119 36.1553 27.4941 35.3576 28.9745C34.5751 30.4257 33.6179 31.7685 32.509 32.9709C32.1029 33.4127 31.6744 33.8311 31.2297 34.2309C30.1531 35.1994 28.9735 36.0382 27.7135 36.7309C26.2216 37.5537 24.6282 38.1624 22.9773 38.5402C22.0447 38.7562 21.0971 38.8961 20.1432 38.9587C20.0086 38.9672 19.8744 38.9861 19.7402 38.9998H17.9956C17.9605 38.9935 17.9256 38.9839 17.8901 38.981C17.6878 38.9644 17.4848 38.9548 17.2832 38.9323C16.8402 38.8828 16.3958 38.8404 15.9551 38.7711C14.7657 38.5836 13.5969 38.2756 12.4658 37.8513C9.69014 36.8133 7.18884 35.116 5.16316 32.8959C4.71189 32.4022 4.28542 31.885 3.88543 31.3461C2.37655 29.3099 1.27238 26.9849 0.636607 24.5052C0.304921 23.215 0.104827 21.8923 0.0395976 20.559C0.0337493 20.4445 0.0134023 20.3307 0 20.2167V18.8079C0.0069448 18.7634 0.0171793 18.7197 0.0204689 18.6744C0.0365516 18.4528 0.0511722 18.231 0.0660366 18.0093C0.101735 17.4707 0.165457 16.9355 0.247332 16.4025C0.652954 13.7784 1.57572 11.2684 2.95836 9.02839C3.86499 7.55705 4.9587 6.21838 6.21012 5.04831C6.86534 4.43399 7.5611 3.86756 8.29234 3.35311C11.2132 1.30091 14.6355 0.144368 18.1646 0.016884C18.2118 0.015372 18.259 0.00579599 18.3061 0ZM11.5225 34.5598C11.5678 34.5888 11.5992 34.6128 11.6335 34.6303C11.7478 34.6885 11.8631 34.7449 11.9782 34.8011C12.724 35.1654 13.4961 35.4689 14.2875 35.7091C15.1361 35.9673 16.0032 36.1547 16.8807 36.2695C17.4341 36.3424 17.9903 36.3798 18.5475 36.3981C19.0452 36.4144 19.5424 36.3919 20.0394 36.3577C20.6872 36.3135 21.3317 36.2284 21.9693 36.1027C25.5901 35.3945 28.8725 33.4399 31.2824 30.5571C33.6924 27.6742 35.0879 24.0327 35.242 20.2252C35.3258 18.1996 35.0578 16.1749 34.4506 14.2472C33.8733 12.4135 32.994 10.6968 31.8514 9.17278C31.0639 8.11927 30.1592 7.16527 29.156 6.33048C27.3506 4.82608 25.2548 3.73851 23.0095 3.1408C22.2071 2.92721 21.3902 2.77696 20.5658 2.69135C20.054 2.63831 19.5423 2.6116 19.0283 2.60379C18.8136 2.60051 18.5984 2.60807 18.384 2.62004C18.0063 2.64108 17.6286 2.66187 17.2524 2.69564C16.5027 2.76835 15.7595 2.89964 15.029 3.08838C12.5695 3.71289 10.284 4.91969 8.35245 6.61364C6.42095 8.30759 4.89634 10.4424 3.89884 12.8497C3.55251 13.6868 3.27182 14.5513 3.05949 15.435C2.88694 16.1378 2.76288 16.8525 2.68825 17.5736C2.64195 18.0398 2.60296 18.5087 2.58968 18.9773C2.57628 19.4502 2.58712 19.9246 2.60881 20.3972C2.62818 20.8203 2.664 21.2437 2.71493 21.664C2.85362 22.801 3.10609 23.92 3.46826 25.003C3.69765 25.6925 3.96988 26.3659 4.28324 27.019C4.30334 27.061 4.33002 27.0995 4.36109 27.1526C4.41702 27.0984 4.46124 27.0583 4.50267 27.0154C6.40384 25.0498 8.30505 23.0842 10.2063 21.1186C10.4256 20.8918 10.3615 20.9044 10.6834 20.9685C10.9603 21.0313 11.2459 21.0406 11.5261 20.9961C12.0379 20.9036 12.4957 20.6108 12.8042 20.1784C13.1128 19.746 13.2484 19.2074 13.183 18.6743C13.1175 18.1412 12.856 17.6547 12.4528 17.3157C12.0496 16.9768 11.5356 16.8115 11.0176 16.8542C10.7452 16.8774 10.4801 16.9574 10.2385 17.0895C9.99679 17.2217 9.78355 17.4031 9.61162 17.6229C9.4397 17.8427 9.31268 18.0962 9.23822 18.3682C9.16377 18.6402 9.14345 18.925 9.17847 19.2054C9.19443 19.3401 9.21904 19.474 9.24475 19.6071C9.2561 19.6467 9.25596 19.6889 9.24435 19.7285C9.23275 19.7681 9.21018 19.8033 9.17945 19.8297C9.15228 19.8538 9.12864 19.8819 9.10318 19.9082L6.78824 22.3022C6.19123 22.9196 5.59422 23.537 4.99721 24.1544C4.96224 24.1906 4.92277 24.2221 4.86806 24.2715C4.84857 24.2027 4.8331 24.1581 4.82298 24.1114C4.73648 23.7137 4.65326 23.3152 4.56469 22.9178C4.31392 21.7847 4.18779 20.626 4.18869 19.4636C4.18796 19.036 4.21915 18.6079 4.24961 18.1811C4.30354 17.4664 4.41124 16.7571 4.57175 16.0597C5.01246 14.0956 5.8256 12.2415 6.96405 10.6048C7.55898 9.75277 8.23668 8.966 8.98658 8.25676C11.5633 5.81848 14.8954 4.40876 18.3858 4.28021C18.8109 4.26396 19.2376 4.28374 19.6634 4.29521C20.2007 4.31557 20.7361 4.37286 21.2661 4.46669C22.9305 4.73889 24.5365 5.30805 26.0126 6.14879C27.697 7.10591 29.1835 8.39536 30.388 9.94415C31.6191 11.5138 32.5312 13.3243 33.0695 15.2671C33.4296 16.5589 33.6235 17.8941 33.6462 19.2383C33.652 19.5385 33.6446 19.8395 33.6295 20.1394C33.6109 20.5092 33.5895 20.8797 33.5495 21.2475C33.3246 23.2922 32.6997 25.2682 31.7128 27.0552C30.6289 29.0177 29.1362 30.7062 27.3431 31.9982C25.5499 33.2902 23.5012 34.1534 21.3455 34.5251C20.6743 34.6442 19.9954 34.711 19.3145 34.7249C18.9167 34.731 18.5179 34.7249 18.1205 34.703C17.7313 34.6814 17.3423 34.6436 16.9554 34.5945C16.1 34.4859 15.2666 34.26 14.4267 34.0695C14.3883 34.0579 14.3506 34.0441 14.3137 34.0283C14.3633 33.9714 14.3982 33.9275 14.4367 33.8881C15.8134 32.464 17.1906 31.0399 18.5682 29.6157C18.5908 29.5924 18.6141 29.5701 18.636 29.5461C18.6516 29.5272 18.6719 29.5131 18.6946 29.5052C18.7174 29.4974 18.7418 29.496 18.7652 29.5013C18.8436 29.5165 18.9224 29.5283 19.0005 29.5443C19.2626 29.6006 19.5323 29.6079 19.7968 29.5656C20.3073 29.4781 20.7659 29.1913 21.0778 28.7644C21.3898 28.3375 21.5314 27.803 21.4735 27.2713C21.4163 26.741 21.1651 26.2534 20.7713 25.9087C20.3775 25.5639 19.8711 25.3881 19.3559 25.4173C18.8407 25.4465 18.3559 25.6785 18.0009 26.0657C17.6459 26.4529 17.4477 26.9659 17.4469 27.4994C17.4525 27.7219 17.4803 27.9431 17.53 28.1596C17.5439 28.2048 17.5438 28.2534 17.5297 28.2985C17.5156 28.3437 17.4883 28.3832 17.4516 28.4116C17.4277 28.4334 17.405 28.4566 17.3836 28.4811L11.8577 34.1951C11.7733 34.2824 11.6881 34.3692 11.6046 34.4575C11.5781 34.4856 11.5559 34.5183 11.523 34.5598H11.5225ZM7.89904 32.0165C7.9518 31.9661 7.99907 31.9228 8.04342 31.8771C12.4788 27.2907 16.914 22.7043 21.3493 18.1179C21.5156 17.9459 21.4702 17.9555 21.701 18.0045C21.9773 18.07 22.2621 18.087 22.5438 18.0549C22.9386 17.9994 23.3088 17.8245 23.6077 17.552C23.9066 17.2796 24.121 16.9219 24.2238 16.5238C24.3267 16.1257 24.3134 15.705 24.1857 15.3147C24.058 14.9244 23.8215 14.5819 23.5061 14.3302C23.1906 14.0785 22.8103 13.9288 22.4128 13.9001C22.0153 13.8713 21.6185 13.9648 21.2722 14.1686C20.926 14.3725 20.6457 14.6777 20.4667 15.0458C20.2877 15.4139 20.218 15.8286 20.2663 16.2376C20.2769 16.3523 20.2958 16.466 20.3228 16.5778C20.3421 16.6418 20.3419 16.7103 20.3223 16.7742C20.3026 16.8381 20.2646 16.8942 20.2132 16.935C15.7842 21.5107 11.3568 26.0881 6.93116 30.6672C6.90301 30.6963 6.87438 30.725 6.84685 30.7547C6.76424 30.8429 6.76156 30.8504 6.841 30.9347C7.11603 31.2268 7.3924 31.5174 7.67011 31.8065C7.73956 31.8786 7.81729 31.9422 7.89904 32.0168V32.0165Z" fill="white"/>
</g>
</svg>
